<svg width="283" height="146" viewBox="0 0 283 146" fill="none" xmlns="http://www.w3.org/2000/svg">
<circle cx="59.8089" cy="86.7689" r="34.3918" transform="rotate(-51.7625 59.8089 86.7689)" stroke="#CA7EFA" stroke-width="15"/>
<circle cx="91.3877" cy="40.3878" r="21.2585" transform="rotate(-51.7625 91.3877 40.3878)" stroke="#CA7EFA" stroke-width="15"/>
<path d="M126 48H135.841L146.234 73.3855H146.677L157.07 48H166.911V85.7831H159.171V61.1909H158.858L149.091 85.5986H143.82L134.053 61.0986H133.74V85.7831H126V48Z" fill="#CA7EFA"/>
<path d="M186.238 86.3366C183.326 86.3366 180.82 85.7462 178.719 84.5655C176.63 83.3725 175.021 81.6875 173.891 79.5105C172.76 77.3213 172.195 74.7323 172.195 71.7436C172.195 68.8287 172.76 66.2705 173.891 64.0689C175.021 61.8673 176.612 60.1516 178.664 58.9217C180.727 57.6918 183.148 57.0768 185.924 57.0768C187.792 57.0768 189.53 57.3781 191.139 57.9808C192.761 58.5712 194.174 59.4629 195.378 60.6559C196.594 61.8489 197.54 63.3494 198.216 65.1574C198.892 66.9531 199.229 69.0562 199.229 71.4669V73.6254H126.741V68.7549H191.84C191.84 67.6234 191.594 66.621 191.103 65.7477C190.611 64.8745 189.929 64.1919 189.057 63.6999C188.197 63.1957 187.196 62.9435 186.053 62.9435C184.862 62.9435 183.805 63.2203 182.884 63.7737C181.974 64.3149 181.262 65.0467 180.746 65.9691C180.23 66.8793 179.966 67.894 179.953 69.0132V73.6438C179.953 75.0459 180.211 76.2574 180.727 77.2782C181.256 78.2991 181.999 79.0862 182.957 79.6397C183.916 80.1931 185.052 80.4699 186.367 80.4699C187.239 80.4699 188.037 80.3469 188.762 80.1009C189.487 79.8549 190.107 79.4859 190.623 78.994C191.139 78.502 191.533 77.8993 191.803 77.186L199.064 77.6657C198.695 79.4121 197.94 80.9372 196.797 82.241C195.667 83.5324 194.205 84.5409 192.411 85.2666C190.63 85.9799 188.572 86.3366 186.238 86.3366Z" fill="#CA7EFA"/>
<path d="M204.353 85.7831V57.4458H211.963V62.3901H212.258C212.774 60.6313 213.64 59.303 214.857 58.4051C216.073 57.495 217.474 57.0399 219.058 57.0399C219.452 57.0399 219.875 57.0645 220.33 57.1137C220.784 57.1629 221.184 57.2305 221.528 57.3166V64.2903C221.159 64.1796 220.649 64.0812 219.998 63.9951C219.347 63.909 218.751 63.866 218.211 63.866C217.056 63.866 216.024 64.1181 215.115 64.6224C214.218 65.1143 213.505 65.8031 212.977 66.6886C212.461 67.5742 212.203 68.595 212.203 69.7511V85.7831H204.353Z" fill="#CA7EFA"/>
<path d="M237.021 97C234.478 97 232.298 96.6495 230.479 95.9484C228.673 95.2597 227.236 94.3188 226.167 93.1258C225.098 91.9327 224.404 90.5921 224.085 89.1039L231.345 88.1261C231.567 88.6919 231.917 89.2208 232.396 89.7127C232.875 90.2047 233.508 90.5983 234.294 90.8934C235.093 91.2009 236.063 91.3547 237.206 91.3547C238.913 91.3547 240.32 90.9365 241.426 90.1002C242.544 89.2761 243.103 87.8924 243.103 85.9492V80.7651H242.771C242.427 81.5522 241.911 82.2963 241.223 82.9974C240.535 83.6984 239.65 84.2703 238.569 84.7131C237.488 85.1559 236.198 85.3773 234.699 85.3773C232.574 85.3773 230.639 84.8853 228.894 83.9014C227.162 82.9051 225.78 81.3862 224.748 79.3445C223.728 77.2905 223.219 74.6954 223.219 71.5591C223.219 68.349 223.741 65.6678 224.785 63.5154C225.829 61.3631 227.217 59.7519 228.95 58.6819C230.694 57.6118 232.605 57.0768 234.681 57.0768C236.266 57.0768 237.593 57.3474 238.661 57.8886C239.73 58.4174 240.59 59.0816 241.241 59.881C241.905 60.6682 242.415 61.443 242.771 62.2056H243.066V57.4458H250.861V86.0599C250.861 88.4705 250.271 90.4876 249.092 92.1111C247.912 93.7346 246.279 94.9522 244.19 95.7639C242.114 96.588 239.724 97 237.021 97ZM237.187 79.4736C238.453 79.4736 239.521 79.16 240.394 78.5328C241.278 77.8932 241.954 76.9831 242.421 75.8023C242.9 74.6093 243.14 73.1826 243.14 71.5222C243.14 69.8618 242.906 68.4228 242.439 67.2052C241.972 65.9753 241.297 65.0221 240.412 64.3456C239.528 63.6692 238.453 63.3309 237.187 63.3309C235.897 63.3309 234.81 63.6815 233.925 64.3825C233.041 65.0713 232.371 66.0306 231.917 67.2605C231.462 68.4905 231.235 69.911 231.235 71.5222C231.235 73.158 231.462 74.5724 231.917 75.7654C232.384 76.9462 233.053 77.8625 233.925 78.5143C234.81 79.1539 235.897 79.4736 237.187 79.4736Z" fill="#CA7EFA"/>
<path d="M270.008 86.3366C267.096 86.3366 264.59 85.7462 262.489 84.5655C260.401 83.3725 258.791 81.6875 257.661 79.5105C256.531 77.3213 255.966 74.7323 255.966 71.7436C255.966 68.8287 256.531 66.2705 257.661 64.0689C258.791 61.8673 260.382 60.1516 262.434 58.9217C264.498 57.6918 266.918 57.0768 269.695 57.0768C271.562 57.0768 273.301 57.3781 274.91 57.9808C276.532 58.5712 277.944 59.4629 279.148 60.6559C280.365 61.8489 281.311 63.3494 281.986 65.1574C282.662 66.9531 283 69.0562 283 71.4669V73.6254H196.797V68.7549H275.61C275.61 67.6234 275.365 66.621 274.873 65.7477C274.382 64.8745 273.7 64.1919 272.828 63.6999C271.968 63.1957 270.966 62.9435 269.824 62.9435C268.632 62.9435 267.575 63.2203 266.654 63.7737C265.745 64.3149 265.032 65.0467 264.516 65.9691C264 66.8793 263.736 67.894 263.724 69.0132V73.6438C263.724 75.0459 263.982 76.2574 264.498 77.2782C265.026 78.2991 265.77 79.0862 266.728 79.6397C267.686 80.1931 268.822 80.4699 270.137 80.4699C271.009 80.4699 271.808 80.3469 272.533 80.1009C273.258 79.8549 273.878 79.4859 274.394 78.994C274.91 78.502 275.303 77.8993 275.573 77.186L282.834 77.6657C282.466 79.4121 281.71 80.9372 280.567 82.241C279.437 83.5324 277.975 84.5409 276.182 85.2666C274.4 85.9799 272.342 86.3366 270.008 86.3366Z" fill="#CA7EFA"/>
</svg>
