<svg width="212" height="67" viewBox="0 0 212 67" fill="none" xmlns="http://www.w3.org/2000/svg">
<path d="M0 0H13.2741L27.294 34.2045H27.8906L41.9105 0H55.1847V50.9091H44.7443V17.7734H44.3217L31.147 50.6605H24.0376L10.8629 17.6491H10.4403V50.9091H0V0Z" fill="#CA7EFA"/>
<path d="M81.2544 51.6548C77.3269 51.6548 73.9462 50.8594 71.1124 49.2685C68.2952 47.661 66.1242 45.3906 64.5996 42.4574C63.075 39.5076 62.3127 36.0192 62.3127 31.9922C62.3127 28.0646 63.075 24.6177 64.5996 21.6513C66.1242 18.6849 68.2703 16.3731 71.0378 14.7159C73.8219 13.0587 77.0866 12.2301 80.8319 12.2301C83.3508 12.2301 85.6957 12.6361 87.8667 13.4482C90.0542 14.2436 91.9599 15.4451 93.584 17.0526C95.2246 18.66 96.5007 20.6818 97.4121 23.1179C98.3236 25.5374 98.7793 28.3712 98.7793 31.6193V34.5277H1V27.9652H88.8113C88.8113 26.4406 88.4798 25.09 87.8169 23.9134C87.1541 22.7367 86.2343 21.817 85.0577 21.1541C83.8977 20.4747 82.5471 20.1349 81.0059 20.1349C79.3984 20.1349 77.9732 20.5078 76.7303 21.2536C75.504 21.9827 74.5428 22.9688 73.8468 24.2116C73.1507 25.438 72.7944 26.8052 72.7779 28.3132V34.5526C72.7779 36.4418 73.1259 38.0741 73.8219 39.4496C74.5345 40.825 75.5371 41.8857 76.8297 42.6314C78.1223 43.3771 79.6552 43.75 81.4284 43.75C82.6051 43.75 83.6822 43.5843 84.66 43.2528C85.6377 42.9214 86.4746 42.4242 87.1706 41.7614C87.8667 41.0985 88.397 40.2865 88.7615 39.3253L98.5556 39.9716C98.0584 42.3248 97.0392 44.3797 95.498 46.1364C93.9734 47.8764 92.0014 49.2353 89.5819 50.2131C87.1789 51.1742 84.4031 51.6548 81.2544 51.6548Z" fill="#CA7EFA"/>
<path d="M105.69 50.9091V12.7273H115.956V19.3892H116.354C117.05 17.0194 118.218 15.2296 119.859 14.0199C121.499 12.7936 123.389 12.1804 125.526 12.1804C126.057 12.1804 126.628 12.2135 127.242 12.2798C127.855 12.3461 128.393 12.4373 128.857 12.5533V21.9496C128.36 21.8004 127.673 21.6679 126.794 21.5518C125.916 21.4358 125.112 21.3778 124.383 21.3778C122.825 21.3778 121.433 21.7176 120.207 22.397C118.997 23.0599 118.036 23.9879 117.323 25.1811C116.627 26.3743 116.279 27.7498 116.279 29.3075V50.9091H105.69Z" fill="#CA7EFA"/>
<path d="M149.757 66.0227C146.326 66.0227 143.385 65.5504 140.932 64.6058C138.496 63.6778 136.557 62.41 135.115 60.8026C133.674 59.1951 132.737 57.3887 132.306 55.3835L142.1 54.0661C142.399 54.8284 142.871 55.541 143.517 56.2038C144.164 56.8667 145.017 57.397 146.078 57.7947C147.155 58.209 148.464 58.4162 150.005 58.4162C152.309 58.4162 154.206 57.8527 155.698 56.7259C157.206 55.6155 157.96 53.7512 157.96 51.1328V44.1477H157.512C157.048 45.2083 156.352 46.2109 155.424 47.1555C154.496 48.1001 153.303 48.8707 151.845 49.4673C150.386 50.0639 148.646 50.3622 146.625 50.3622C143.758 50.3622 141.148 49.6993 138.794 48.3736C136.458 47.0313 134.593 44.9846 133.201 42.2337C131.826 39.4661 131.138 35.9695 131.138 31.7436C131.138 27.4183 131.842 23.8056 133.251 20.9055C134.66 18.0054 136.532 15.8345 138.869 14.3928C141.222 12.951 143.799 12.2301 146.6 12.2301C148.738 12.2301 150.527 12.5947 151.969 13.3239C153.411 14.0365 154.571 14.9313 155.449 16.0085C156.344 17.0691 157.032 18.1132 157.512 19.1406H157.91V12.7273H168.425V51.282C168.425 54.5301 167.63 57.2479 166.039 59.4354C164.448 61.6229 162.244 63.2635 159.426 64.3572C156.626 65.4676 153.403 66.0227 149.757 66.0227ZM149.98 42.4077C151.687 42.4077 153.129 41.9851 154.306 41.1399C155.499 40.2782 156.41 39.0518 157.04 37.4609C157.686 35.8535 158.01 33.9311 158.01 31.6939C158.01 29.4567 157.695 27.5178 157.065 25.8771C156.435 24.2199 155.524 22.9356 154.331 22.0241C153.137 21.1127 151.687 20.657 149.98 20.657C148.24 20.657 146.774 21.1293 145.581 22.0739C144.387 23.0019 143.484 24.2945 142.871 25.9517C142.258 27.6089 141.951 29.523 141.951 31.6939C141.951 33.898 142.258 35.8037 142.871 37.4112C143.501 39.0021 144.404 40.2367 145.581 41.1151C146.774 41.9768 148.24 42.4077 149.98 42.4077Z" fill="#CA7EFA"/>
<path d="M194.252 51.6548C190.325 51.6548 186.944 50.8594 184.11 49.2685C181.293 47.661 179.122 45.3906 177.598 42.4574C176.073 39.5076 175.311 36.0192 175.311 31.9922C175.311 28.0646 176.073 24.6177 177.598 21.6513C179.122 18.6849 181.268 16.3731 184.036 14.7159C186.82 13.0587 190.085 12.2301 193.83 12.2301C196.349 12.2301 198.694 12.6361 200.865 13.4482C203.052 14.2436 204.958 15.4451 206.582 17.0526C208.223 18.66 209.499 20.6818 210.41 23.1179C211.322 25.5374 211.777 28.3712 211.777 31.6193V34.5277H95.498V27.9652H201.809C201.809 26.4406 201.478 25.09 200.815 23.9134C200.152 22.7367 199.232 21.817 198.056 21.1541C196.896 20.4747 195.545 20.1349 194.004 20.1349C192.396 20.1349 190.971 20.5078 189.728 21.2536C188.502 21.9827 187.541 22.9688 186.845 24.2116C186.149 25.438 185.792 26.8052 185.776 28.3132V34.5526C185.776 36.4418 186.124 38.0741 186.82 39.4496C187.533 40.825 188.535 41.8857 189.828 42.6314C191.12 43.3771 192.653 43.75 194.426 43.75C195.603 43.75 196.68 43.5843 197.658 43.2528C198.636 42.9214 199.473 42.4242 200.169 41.7614C200.865 41.0985 201.395 40.2865 201.76 39.3253L211.554 39.9716C211.056 42.3248 210.037 44.3797 208.496 46.1364C206.971 47.8764 204.999 49.2353 202.58 50.2131C200.177 51.1742 197.401 51.6548 194.252 51.6548Z" fill="#CA7EFA"/>
</svg>
