<svg width="273" height="128" viewBox="0 0 273 128" fill="none" xmlns="http://www.w3.org/2000/svg">
<circle cx="50.7705" cy="77.8174" r="28.0178" transform="rotate(-51.7625 50.7705 77.8174)" stroke="#CA7EFA" stroke-width="15"/>
<circle cx="83.4107" cy="40.3878" r="21.2585" transform="rotate(-51.7625 83.4107 40.3878)" stroke="#CA7EFA" stroke-width="15"/>
<path d="M115.023 51H124.864L135.257 76.3855H135.7L146.093 51H155.934V88.7831H148.194V64.1909H147.881L138.114 88.5986H132.843L123.076 64.0986H122.763V88.7831H115.023V51Z" fill="#CA7EFA"/>
<path d="M175.26 89.3366C172.349 89.3366 169.843 88.7462 167.742 87.5655C165.653 86.3725 164.044 84.6875 162.914 82.5105C161.783 80.3213 161.218 77.7323 161.218 74.7436C161.218 71.8287 161.783 69.2705 162.914 67.0689C164.044 64.8673 165.635 63.1516 167.686 61.9217C169.75 60.6918 172.171 60.0768 174.947 60.0768C176.815 60.0768 178.553 60.3781 180.162 60.9808C181.784 61.5712 183.197 62.4629 184.401 63.6559C185.617 64.8489 186.563 66.3494 187.239 68.1574C187.915 69.9531 188.252 72.0562 188.252 74.4669V76.6254H162.764V71.7549H180.863C180.863 70.6234 180.617 69.621 180.126 68.7477C179.634 67.8745 178.952 67.1919 178.08 66.6999C177.22 66.1957 176.219 65.9435 175.076 65.9435C173.885 65.9435 172.828 66.2203 171.907 66.7737C170.997 67.3149 170.285 68.0467 169.769 68.9691C169.253 69.8793 168.989 70.894 168.976 72.0132V76.6438C168.976 78.0459 169.234 79.2574 169.75 80.2782C170.279 81.2991 171.022 82.0862 171.98 82.6397C172.939 83.1931 174.075 83.4699 175.389 83.4699C176.262 83.4699 177.06 83.3469 177.785 83.1009C178.51 82.8549 179.13 82.4859 179.646 81.994C180.162 81.502 180.556 80.8993 180.826 80.186L188.087 80.6657C187.718 82.4121 186.962 83.9372 185.82 85.241C184.69 86.5324 183.228 87.5409 181.434 88.2666C179.653 88.9799 177.595 89.3366 175.26 89.3366Z" fill="#CA7EFA"/>
<path d="M193.376 88.7831V60.4458H200.986V65.3901H201.281C201.797 63.6313 202.663 62.303 203.88 61.4051C205.096 60.495 206.496 60.0399 208.081 60.0399C208.474 60.0399 208.898 60.0645 209.353 60.1137C209.807 60.1629 210.207 60.2305 210.551 60.3166V67.2903C210.182 67.1796 209.672 67.0812 209.021 66.9951C208.37 66.909 207.774 66.866 207.234 66.866C206.079 66.866 205.047 67.1181 204.138 67.6224C203.241 68.1143 202.528 68.8031 202 69.6886C201.484 70.5742 201.226 71.595 201.226 72.7511V88.7831H193.376Z" fill="#CA7EFA"/>
<path d="M226.044 100C223.501 100 221.321 99.6495 219.502 98.9484C217.696 98.2597 216.259 97.3188 215.19 96.1258C214.121 94.9327 213.427 93.5921 213.108 92.1039L220.368 91.1261C220.59 91.6919 220.94 92.2208 221.419 92.7127C221.898 93.2047 222.531 93.5983 223.317 93.8934C224.115 94.2009 225.086 94.3547 226.229 94.3547C227.936 94.3547 229.343 93.9365 230.449 93.1002C231.567 92.2761 232.126 90.8924 232.126 88.9492V83.7651H231.794C231.45 84.5522 230.934 85.2963 230.246 85.9974C229.558 86.6984 228.673 87.2703 227.592 87.7131C226.511 88.1559 225.221 88.3773 223.722 88.3773C221.597 88.3773 219.662 87.8853 217.917 86.9014C216.185 85.9051 214.803 84.3862 213.771 82.3445C212.751 80.2905 212.242 77.6954 212.242 74.5591C212.242 71.349 212.764 68.6678 213.808 66.5154C214.852 64.3631 216.24 62.7519 217.973 61.6819C219.717 60.6118 221.628 60.0768 223.704 60.0768C225.289 60.0768 226.616 60.3474 227.684 60.8886C228.753 61.4174 229.613 62.0816 230.264 62.881C230.928 63.6682 231.438 64.443 231.794 65.2056H232.089V60.4458H239.884V89.0599C239.884 91.4705 239.294 93.4876 238.115 95.1111C236.935 96.7346 235.301 97.9522 233.213 98.7639C231.137 99.588 228.747 100 226.044 100ZM226.21 82.4736C227.476 82.4736 228.544 82.16 229.417 81.5328C230.301 80.8932 230.977 79.9831 231.444 78.8023C231.923 77.6093 232.163 76.1826 232.163 74.5222C232.163 72.8618 231.929 71.4228 231.462 70.2052C230.995 68.9753 230.32 68.0221 229.435 67.3456C228.551 66.6692 227.476 66.3309 226.21 66.3309C224.92 66.3309 223.833 66.6815 222.948 67.3825C222.064 68.0713 221.394 69.0306 220.94 70.2605C220.485 71.4905 220.258 72.911 220.258 74.5222C220.258 76.158 220.485 77.5724 220.94 78.7654C221.407 79.9462 222.076 80.8625 222.948 81.5143C223.833 82.1539 224.92 82.4736 226.21 82.4736Z" fill="#CA7EFA"/>
<path d="M259.031 89.3366C256.119 89.3366 253.613 88.7462 251.512 87.5655C249.424 86.3725 247.814 84.6875 246.684 82.5105C245.554 80.3213 244.989 77.7323 244.989 74.7436C244.989 71.8287 245.554 69.2705 246.684 67.0689C247.814 64.8673 249.405 63.1516 251.457 61.9217C253.521 60.6918 255.941 60.0768 258.718 60.0768C260.585 60.0768 262.324 60.3781 263.933 60.9808C265.555 61.5712 266.967 62.4629 268.171 63.6559C269.388 64.8489 270.334 66.3494 271.009 68.1574C271.685 69.9531 272.023 72.0562 272.023 74.4669V76.6254H245.82V71.7549H264.633C264.633 70.6234 264.387 69.621 263.896 68.7477C263.405 67.8745 262.723 67.1919 261.851 66.6999C260.991 66.1957 259.989 65.9435 258.847 65.9435C257.655 65.9435 256.598 66.2203 255.677 66.7737C254.768 67.3149 254.055 68.0467 253.539 68.9691C253.023 69.8793 252.759 70.894 252.747 72.0132V76.6438C252.747 78.0459 253.005 79.2574 253.521 80.2782C254.049 81.2991 254.792 82.0862 255.751 82.6397C256.709 83.1931 257.845 83.4699 259.16 83.4699C260.032 83.4699 260.831 83.3469 261.556 83.1009C262.281 82.8549 262.901 82.4859 263.417 81.994C263.933 81.502 264.326 80.8993 264.596 80.186L271.857 80.6657C271.489 82.4121 270.733 83.9372 269.59 85.241C268.46 86.5324 266.998 87.5409 265.204 88.2666C263.423 88.9799 261.365 89.3366 259.031 89.3366Z" fill="#CA7EFA"/>
</svg>
