<svg width="20" height="20" viewBox="0 0 20 20" fill="none" xmlns="http://www.w3.org/2000/svg">
<path fill-rule="evenodd" clip-rule="evenodd" d="M19.8086 10.2273C19.8086 9.51819 19.7449 8.83637 19.6266 8.18182H10.2004V12.05H15.5868C15.3548 13.3 14.6497 14.3591 13.5897 15.0682V17.5773H16.8242C18.7168 15.8364 19.8086 13.2727 19.8086 10.2273Z" fill="#4285F4"/>
<path fill-rule="evenodd" clip-rule="evenodd" d="M10.2003 19.9999C12.9026 19.9999 15.1682 19.1044 16.8241 17.5771L13.5896 15.0681C12.6933 15.6681 11.5469 16.0226 10.2003 16.0226C7.59355 16.0226 5.38713 14.2635 4.6001 11.8999H1.25635V14.4908C2.9032 17.759 6.2879 19.9999 10.2003 19.9999Z" fill="#34A853"/>
<path fill-rule="evenodd" clip-rule="evenodd" d="M4.60019 11.9C4.40002 11.3 4.28628 10.6591 4.28628 10C4.28628 9.34096 4.40002 8.70005 4.60019 8.10005V5.50914H1.25644C0.578587 6.85914 0.191895 8.38641 0.191895 10C0.191895 11.6137 0.578587 13.141 1.25644 14.491L4.60019 11.9Z" fill="#FBBC05"/>
<path fill-rule="evenodd" clip-rule="evenodd" d="M10.2003 3.97727C11.6697 3.97727 12.989 4.48182 14.0263 5.47273L16.8969 2.60454C15.1636 0.990909 12.8981 0 10.2003 0C6.2879 0 2.9032 2.24091 1.25635 5.50909L4.6001 8.1C5.38713 5.73636 7.59355 3.97727 10.2003 3.97727Z" fill="#EA4335"/>
</svg>
