<svg width="76" height="20" viewBox="0 0 76 20" fill="none" xmlns="http://www.w3.org/2000/svg">
<path fill-rule="evenodd" clip-rule="evenodd" d="M19.8084 10.2271C19.8084 9.518 19.7447 8.83619 19.6264 8.18164H10.2002V12.0498H15.5866C15.3546 13.2998 14.6494 14.3589 13.5894 15.068V17.5771H16.824C18.7165 15.8362 19.8084 13.2725 19.8084 10.2271Z" fill="#4285F4"/>
<path fill-rule="evenodd" clip-rule="evenodd" d="M10.1998 19.9999C12.9021 19.9999 15.1677 19.1044 16.8236 17.5772L13.5891 15.0681C12.6929 15.6681 11.5464 16.0226 10.1998 16.0226C7.59306 16.0226 5.38664 14.2635 4.59961 11.8999H1.25586V14.4908C2.90271 17.759 6.28741 19.9999 10.1998 19.9999Z" fill="#34A853"/>
<path fill-rule="evenodd" clip-rule="evenodd" d="M4.5997 11.9002C4.39953 11.3002 4.28579 10.6593 4.28579 10.0002C4.28579 9.34109 4.39953 8.70019 4.5997 8.10019V5.50928H1.25595C0.578098 6.85928 0.191406 8.38655 0.191406 10.0002C0.191406 11.6138 0.578098 13.1411 1.25595 14.4911L4.5997 11.9002Z" fill="#FBBC05"/>
<path fill-rule="evenodd" clip-rule="evenodd" d="M10.1998 3.97727C11.6693 3.97727 12.9886 4.48182 14.0258 5.47273L16.8964 2.60454C15.1631 0.990909 12.8976 0 10.1998 0C6.28741 0 2.90271 2.24091 1.25586 5.50909L4.59961 8.1C5.38664 5.73636 7.59306 3.97727 10.1998 3.97727Z" fill="#EA4335"/>
<path d="M35.8169 8.0348C35.7207 7.73319 35.5915 7.46307 35.4291 7.22443C35.27 6.98248 35.0794 6.77699 34.8573 6.60795C34.6353 6.43561 34.3817 6.30469 34.0967 6.2152C33.815 6.12571 33.5051 6.08097 33.167 6.08097C32.5936 6.08097 32.0766 6.22846 31.6159 6.52344C31.1552 6.81842 30.7906 7.25095 30.5221 7.82102C30.257 8.38778 30.1244 9.08215 30.1244 9.90412C30.1244 10.7294 30.2586 11.4271 30.5271 11.9972C30.7955 12.5672 31.1634 12.9998 31.6308 13.2947C32.0981 13.5897 32.6301 13.7372 33.2267 13.7372C33.7802 13.7372 34.2624 13.6245 34.6734 13.3991C35.0877 13.1738 35.4075 12.8556 35.6329 12.4446C35.8616 12.0303 35.9759 11.5431 35.9759 10.983L36.3737 11.0575H33.4603V9.78977H37.4624V10.9482C37.4624 11.8033 37.2802 12.5457 36.9156 13.1754C36.5543 13.8018 36.0538 14.2857 35.4142 14.6271C34.7778 14.9685 34.0486 15.1392 33.2267 15.1392C32.3052 15.1392 31.4965 14.9271 30.8005 14.5028C30.1078 14.0786 29.5676 13.477 29.1798 12.6982C28.792 11.916 28.5981 10.9879 28.5981 9.91406C28.5981 9.10204 28.7108 8.37287 28.9362 7.72656C29.1615 7.08026 29.4781 6.53172 29.8857 6.08097C30.2967 5.62689 30.779 5.28054 31.3325 5.0419C31.8893 4.79995 32.4975 4.67898 33.157 4.67898C33.7072 4.67898 34.2193 4.76018 34.6933 4.92258C35.1705 5.08499 35.5948 5.31534 35.966 5.61364C36.3405 5.91193 36.6504 6.26657 36.8957 6.67756C37.141 7.08523 37.3067 7.53764 37.3928 8.0348H35.8169ZM42.5099 15.1541C41.7939 15.1541 41.1692 14.9901 40.6356 14.6619C40.1019 14.3338 39.6876 13.8748 39.3927 13.2848C39.0977 12.6948 38.9502 12.0054 38.9502 11.2166C38.9502 10.4245 39.0977 9.73177 39.3927 9.13849C39.6876 8.54522 40.1019 8.08452 40.6356 7.75639C41.1692 7.42827 41.7939 7.2642 42.5099 7.2642C43.2258 7.2642 43.8505 7.42827 44.3841 7.75639C44.9178 8.08452 45.3321 8.54522 45.627 9.13849C45.922 9.73177 46.0695 10.4245 46.0695 11.2166C46.0695 12.0054 45.922 12.6948 45.627 13.2848C45.3321 13.8748 44.9178 14.3338 44.3841 14.6619C43.8505 14.9901 43.2258 15.1541 42.5099 15.1541ZM42.5148 13.9062C42.9788 13.9062 43.3633 13.7836 43.6682 13.5384C43.9732 13.2931 44.1985 12.9666 44.3444 12.5589C44.4935 12.1513 44.5681 11.7022 44.5681 11.2116C44.5681 10.7244 44.4935 10.277 44.3444 9.86932C44.1985 9.45833 43.9732 9.12855 43.6682 8.87997C43.3633 8.63139 42.9788 8.5071 42.5148 8.5071C42.0475 8.5071 41.6597 8.63139 41.3515 8.87997C41.0465 9.12855 40.8195 9.45833 40.6704 9.86932C40.5245 10.277 40.4516 10.7244 40.4516 11.2116C40.4516 11.7022 40.5245 12.1513 40.6704 12.5589C40.8195 12.9666 41.0465 13.2931 41.3515 13.5384C41.6597 13.7836 42.0475 13.9062 42.5148 13.9062ZM50.9454 15.1541C50.2295 15.1541 49.6047 14.9901 49.0711 14.6619C48.5375 14.3338 48.1232 13.8748 47.8282 13.2848C47.5332 12.6948 47.3857 12.0054 47.3857 11.2166C47.3857 10.4245 47.5332 9.73177 47.8282 9.13849C48.1232 8.54522 48.5375 8.08452 49.0711 7.75639C49.6047 7.42827 50.2295 7.2642 50.9454 7.2642C51.6613 7.2642 52.2861 7.42827 52.8197 7.75639C53.3533 8.08452 53.7676 8.54522 54.0626 9.13849C54.3576 9.73177 54.5051 10.4245 54.5051 11.2166C54.5051 12.0054 54.3576 12.6948 54.0626 13.2848C53.7676 13.8748 53.3533 14.3338 52.8197 14.6619C52.2861 14.9901 51.6613 15.1541 50.9454 15.1541ZM50.9504 13.9062C51.4144 13.9062 51.7989 13.7836 52.1038 13.5384C52.4087 13.2931 52.6341 12.9666 52.7799 12.5589C52.9291 12.1513 53.0036 11.7022 53.0036 11.2116C53.0036 10.7244 52.9291 10.277 52.7799 9.86932C52.6341 9.45833 52.4087 9.12855 52.1038 8.87997C51.7989 8.63139 51.4144 8.5071 50.9504 8.5071C50.483 8.5071 50.0953 8.63139 49.787 8.87997C49.4821 9.12855 49.2551 9.45833 49.1059 9.86932C48.9601 10.277 48.8872 10.7244 48.8872 11.2116C48.8872 11.7022 48.9601 12.1513 49.1059 12.5589C49.2551 12.9666 49.4821 13.2931 49.787 13.5384C50.0953 13.7836 50.483 13.9062 50.9504 13.9062ZM59.366 18.0227C58.7595 18.0227 58.2375 17.9432 57.8 17.7841C57.3658 17.625 57.0112 17.4145 56.7361 17.1527C56.461 16.8909 56.2555 16.6042 56.1196 16.2926L57.3973 15.7656C57.4868 15.9115 57.6061 16.0656 57.7552 16.228C57.9077 16.3937 58.1132 16.5346 58.3717 16.6506C58.6336 16.7666 58.97 16.8246 59.3809 16.8246C59.9444 16.8246 60.4101 16.687 60.778 16.4119C61.1459 16.1402 61.3298 15.706 61.3298 15.1094V13.608H61.2354C61.1459 13.7704 61.0166 13.951 60.8476 14.1499C60.6818 14.3487 60.4532 14.5211 60.1615 14.6669C59.8698 14.8127 59.4903 14.8857 59.023 14.8857C58.4198 14.8857 57.8762 14.7448 57.3923 14.4631C56.9117 14.178 56.5306 13.7588 56.2488 13.2053C55.9704 12.6484 55.8312 11.964 55.8312 11.152C55.8312 10.34 55.9688 9.64394 56.2439 9.06392C56.5223 8.4839 56.9034 8.03977 57.3873 7.73153C57.8712 7.41998 58.4198 7.2642 59.0329 7.2642C59.5069 7.2642 59.8897 7.34375 60.1814 7.50284C60.473 7.65862 60.7001 7.84091 60.8625 8.04972C61.0282 8.25852 61.1558 8.44247 61.2453 8.60156H61.3547V7.36364H62.8113V15.169C62.8113 15.8253 62.6589 16.3639 62.354 16.7848C62.049 17.2057 61.6364 17.5173 61.116 17.7195C60.599 17.9216 60.0157 18.0227 59.366 18.0227ZM59.3511 13.6527C59.7787 13.6527 60.1399 13.5533 60.4349 13.3544C60.7332 13.1522 60.9586 12.8639 61.1111 12.4893C61.2668 12.1115 61.3447 11.6591 61.3447 11.1321C61.3447 10.6184 61.2685 10.166 61.116 9.77486C60.9636 9.38376 60.7398 9.07884 60.4449 8.86009C60.1499 8.63802 59.7853 8.52699 59.3511 8.52699C58.9037 8.52699 58.5308 8.64299 58.2325 8.875C57.9342 9.10369 57.7088 9.41525 57.5564 9.80966C57.4072 10.2041 57.3327 10.6449 57.3327 11.1321C57.3327 11.6326 57.4089 12.0717 57.5613 12.4496C57.7138 12.8274 57.9392 13.1224 58.2375 13.3345C58.5391 13.5466 58.9103 13.6527 59.3511 13.6527ZM66.2915 4.81818V15H64.805V4.81818H66.2915ZM71.5825 15.1541C70.8301 15.1541 70.1821 14.9934 69.6386 14.6719C69.0983 14.3471 68.6807 13.8913 68.3857 13.3047C68.0941 12.7147 67.9482 12.0237 67.9482 11.2315C67.9482 10.4493 68.0941 9.75994 68.3857 9.16335C68.6807 8.56676 69.0917 8.10109 69.6187 7.76633C70.149 7.43158 70.7688 7.2642 71.4781 7.2642C71.9089 7.2642 72.3266 7.33546 72.7309 7.47798C73.1353 7.6205 73.4982 7.84422 73.8197 8.14915C74.1412 8.45407 74.3947 8.85014 74.5803 9.33736C74.766 9.82126 74.8588 10.4096 74.8588 11.1023V11.6293H68.7884V10.5156H73.4021C73.4021 10.1245 73.3225 9.77817 73.1634 9.47656C73.0044 9.17164 72.7806 8.93134 72.4923 8.75568C72.2072 8.58002 71.8725 8.49219 71.488 8.49219C71.0704 8.49219 70.7058 8.59493 70.3943 8.80043C70.086 9.0026 69.8474 9.26776 69.6784 9.59588C69.5126 9.92069 69.4298 10.2737 69.4298 10.6548V11.5249C69.4298 12.0353 69.5193 12.4695 69.6982 12.8274C69.8805 13.1854 70.1341 13.4588 70.4589 13.6477C70.7837 13.8333 71.1632 13.9261 71.5974 13.9261C71.8791 13.9261 72.136 13.8864 72.368 13.8068C72.6 13.724 72.8005 13.6013 72.9695 13.4389C73.1386 13.2765 73.2678 13.076 73.3573 12.8374L74.7643 13.0909C74.6516 13.5052 74.4494 13.8681 74.1578 14.1797C73.8694 14.4879 73.5065 14.7282 73.069 14.9006C72.6348 15.0696 72.1393 15.1541 71.5825 15.1541Z" fill="#525252"/>
</svg>
