<svg width="20" height="20" viewBox="0 0 20 20" fill="none" xmlns="http://www.w3.org/2000/svg">
<path d="M14.8866 10.8987C14.667 9.65948 14.1292 8.53547 13.354 7.50189C12.5848 6.47693 11.6565 5.58009 10.5929 4.80814C9.75478 4.19876 8.8704 3.64322 8.00739 3.06399C7.91598 3.00262 7.81983 2.96494 7.72248 3.04784C7.63227 3.12428 7.64889 3.21149 7.7118 3.29439C8.08573 3.78426 8.27804 4.33765 8.37657 4.91904C8.50478 5.67161 8.48934 6.41772 8.20919 7.14552C8.03469 7.59771 7.75216 7.96054 7.22866 8.13388C6.73364 8.2986 6.31578 8.15003 6.09855 7.71291C6.06531 7.64616 6.04869 7.57187 6.00833 7.51158C5.96678 7.45021 5.90861 7.36301 5.85045 7.35762C5.78041 7.35116 5.68069 7.40392 5.63083 7.45883C5.48482 7.62032 5.34593 7.79043 5.22485 7.96808C3.84545 9.98785 3.60922 12.1078 4.62774 14.3084C5.12395 15.3797 5.97153 16.1807 7.14793 16.6673C7.47913 16.8041 7.83526 16.8902 8.17951 17H8.24006C8.41218 16.8988 8.42999 16.8374 8.33146 16.6759C8.26617 16.5683 8.19495 16.4638 8.13203 16.3551C7.83051 15.8351 7.60615 15.2925 7.55036 14.7025C7.48744 14.0392 7.63583 13.4083 7.99314 12.8334C8.33502 12.2832 8.73151 11.7611 9.0912 11.2184C9.3025 10.8998 9.50193 10.5714 9.67881 10.2366C9.7809 10.0449 9.82838 9.82851 9.90792 9.60349C10.1073 9.8425 10.3068 10.0654 10.4872 10.299C11.133 11.1323 11.6434 12.0238 11.9046 13.0229C12.0838 13.7066 12.1159 14.3924 11.945 15.0804C11.8168 15.5971 11.5781 16.0709 11.2529 16.5091C11.1959 16.5855 11.1603 16.6652 11.2339 16.747C11.3051 16.8277 11.3965 16.8213 11.4927 16.7857C13.0015 16.2291 14.0544 15.2645 14.6456 13.8885C15.0623 12.9163 15.067 11.9129 14.8878 10.8998L14.8866 10.8987Z" fill="#CA7EFA"/>
</svg>
