<svg width="60" height="60" viewBox="0 0 60 60" fill="none" xmlns="http://www.w3.org/2000/svg">
<g clip-path="url(#clip0_23_27618)">
<path d="M29.9912 59.9823C46.5548 59.9823 59.9823 46.5548 59.9823 29.9912C59.9823 13.4275 46.5548 0 29.9912 0C13.4275 0 0 13.4275 0 29.9912C0 46.5548 13.4275 59.9823 29.9912 59.9823Z" fill="#FAF2FF"/>
<path d="M30.062 33.7867C32.6216 33.7867 35.1988 33.9279 37.5642 34.1397C42.8069 34.6164 46.9199 39.3119 46.9199 44.5722C46.9199 46.0021 46.3903 47.2377 45.2959 48.1556C41.7831 51.0859 37.7937 52.9394 33.2394 53.5396C27.1317 54.3516 21.5536 52.9923 16.4874 49.4972C15.5518 48.8617 14.6339 48.1027 13.9278 47.2201C12.7275 45.702 12.9746 43.9014 13.3983 42.1715C14.5456 37.4937 18.1467 35.0047 22.7363 34.281C25.0487 33.9279 27.5554 33.769 30.062 33.769V33.7867Z" fill="#E8C5FF"/>
<path d="M19.4175 18.2173C19.4175 12.3744 24.166 7.62598 30.0265 7.62598C35.8694 7.62598 40.6179 12.3391 40.6532 18.1997C40.6885 24.0249 35.8518 28.8616 30.0089 28.844C24.1836 28.8263 19.3999 24.0426 19.4175 18.2173Z" fill="#E8C5FF"/>
</g>
<defs>
<clipPath id="clip0_23_27618">
<rect width="60" height="60" fill="white"/>
</clipPath>
</defs>
</svg>
