<svg width="40" height="40" viewBox="0 0 40 40" fill="none" xmlns="http://www.w3.org/2000/svg">
<g clip-path="url(#clip0_1_43925)">
<path d="M20 40C31.0457 40 40 31.0457 40 20C40 8.9543 31.0457 0 20 0C8.9543 0 0 8.9543 0 20C0 31.0457 8.9543 40 20 40Z" fill="#FFEFF0"/>
<path d="M20.041 22.5245C21.7474 22.5245 23.4655 22.6186 25.0425 22.7598C28.5376 23.0776 31.2796 26.2079 31.2796 29.7148C31.2796 30.668 30.9265 31.4918 30.1969 32.1038C27.8551 34.0573 25.1954 35.2929 22.1593 35.693C18.0875 36.2344 14.3687 35.3282 10.9913 32.9981C10.3676 32.5745 9.75561 32.0684 9.28489 31.48C8.48465 30.468 8.64941 29.2676 8.93184 28.1143C9.69677 24.9958 12.0975 23.3365 15.1572 22.854C16.6988 22.6186 18.3699 22.5127 20.041 22.5127V22.5245Z" fill="#FFD9DC"/>
<path d="M12.9449 12.1449C12.9449 8.24962 16.1105 5.08398 20.0175 5.08398C23.9128 5.08398 27.0784 8.22609 27.102 12.1331C27.1255 16.0166 23.901 19.2411 20.0058 19.2293C16.1223 19.2176 12.9331 16.0284 12.9449 12.1449V12.1449Z" fill="#FFD9DC"/>
</g>
<defs>
<clipPath id="clip0_1_43925">
<rect width="40" height="40" fill="white"/>
</clipPath>
</defs>
</svg>
