<svg width="12" height="12" viewBox="0 0 12 12" fill="none" xmlns="http://www.w3.org/2000/svg">
<path fill-rule="evenodd" clip-rule="evenodd" d="M7.56127 8.29278C5.73345 9.75672 3.05789 9.6415 1.36351 7.94712C-0.454503 6.1291 -0.454503 3.18152 1.36351 1.36351C3.18152 -0.454503 6.1291 -0.454503 7.94711 1.36351C9.6415 3.05789 9.75672 5.73344 8.29278 7.56127L11.8485 11.117C12.0505 11.319 12.0505 11.6465 11.8485 11.8485C11.6465 12.0505 11.319 12.0505 11.117 11.8485L7.56127 8.29278ZM2.09502 7.2156C0.681011 5.80159 0.681011 3.50903 2.09502 2.09502C3.50903 0.681011 5.80159 0.681011 7.2156 2.09502C8.62857 3.50799 8.62961 5.79823 7.21871 7.21249L7.21559 7.21559L7.21249 7.21871C5.79823 8.62961 3.50799 8.62858 2.09502 7.2156Z" fill="#525252"/>
</svg>
